<svg width="1022" height="1022" viewBox="0 0 1022 1022" fill="none" xmlns="http://www.w3.org/2000/svg">
<rect width="1021.16" height="1021.14" rx="235" fill="url(#paint0_linear_6_303)"/>
<path fill-rule="evenodd" clip-rule="evenodd" d="M721.824 155.335C719.356 155.562 697.43 159.454 694.792 159.994L391.279 221.323L391.166 221.351C383.252 223.027 377.04 225.84 372.246 229.873C366.459 234.731 363.254 241.605 362.034 249.616C361.779 251.32 361.354 254.786 361.354 259.899C361.354 259.899 361.354 570.437 361.354 640.316C361.354 649.208 360.644 657.843 354.631 665.2C348.617 672.558 341.186 674.773 332.477 676.535C325.868 677.87 319.259 679.205 312.65 680.54C287.574 685.596 271.264 689.033 256.486 694.771C242.36 700.254 231.779 707.242 223.355 716.105C206.647 733.631 199.868 757.407 202.194 779.678C204.18 798.682 212.718 816.862 227.383 830.298C237.282 839.388 249.65 846.291 264.23 849.217C279.348 852.256 295.46 851.205 319.004 846.433C331.541 843.905 343.285 839.956 354.461 833.338C365.523 826.804 374.997 818.083 382.401 807.459C389.833 796.807 394.626 784.962 397.264 772.378C399.987 759.396 400.64 747.664 400.64 734.711V404.771C400.64 387.102 405.632 382.444 419.872 378.978C419.872 378.978 672.156 328.017 683.927 325.716C700.351 322.563 708.095 327.25 708.095 344.493V569.727C708.095 578.646 708.01 587.68 701.94 595.065C695.926 602.422 688.494 604.638 679.786 606.399C673.177 607.734 666.568 609.069 659.959 610.405C634.883 615.461 618.573 618.898 603.795 624.636C589.668 630.119 579.088 637.107 570.664 645.969C553.956 663.496 546.581 687.272 548.907 709.543C550.893 728.547 560.026 746.727 574.691 760.163C584.591 769.253 596.958 775.957 611.538 778.911C626.657 781.95 642.769 780.871 666.312 776.127C678.85 773.599 690.593 769.821 701.769 763.202C712.832 756.669 722.306 747.948 729.71 737.324C737.141 726.672 741.935 714.826 744.573 702.242C747.296 689.261 747.41 677.529 747.41 664.575V182.207C747.466 164.709 738.248 153.915 721.824 155.335Z" fill="white"/>
<defs>
<linearGradient id="paint0_linear_6_303" x1="510.58" y1="0" x2="510.58" y2="1021.14" gradientUnits="userSpaceOnUse">
<stop stop-color="#00C3D0"/>
<stop offset="1" stop-color="#0088FF"/>
</linearGradient>
</defs>
</svg>
